# ProBuilder 4.5.2
# https://unity3d.com/unity/features/worldbuilding/probuilder
# 09/02/2022 09:41:28

mtllib ./Cone.mtl
o Cone

g Cone
v -1 0 0
v -0.7071068 0 0.7071068
v 0 2 0
v 0 0 0
v 0 0 1
v 0.7071068 0 0.7071068
v 1 0 -8.742278E-08
v 0.7071068 0 -0.7071067
v 0 0 -1
v -0.7071066 0 -0.7071069

vt 0 3.408252E-09
vt 0.7653669 0
vt 0.3826835 2.203078
vt -1 0
vt -0.7071068 0.7071068
vt 0 1
vt 0.7071068 0.7071068
vt 1 -8.742278E-08
vt 0.7071068 -0.7071067
vt 0 -1
vt -0.7071066 -0.7071069

vn -0.838717 0.4193585 0.347408
vn 0 -1 0
vn -0.347408 0.4193585 0.838717
vn 0.3474079 0.4193585 0.838717
vn 0.838717 0.4193585 0.3474079
vn 0.838717 0.4193585 -0.347408
vn 0.347408 0.4193585 -0.838717
vn -0.3474079 0.4193585 -0.838717
vn -0.838717 0.4193585 -0.3474081

usemtl ProbuilderDefault
f 1/1/1 2/2/1 3/3/1
f 4/1/2 2/5/2 1/4/2
f 2/1/3 5/2/3 3/3/3
f 4/1/2 5/6/2 2/5/2
f 5/1/4 6/2/4 3/3/4
f 4/1/2 6/7/2 5/6/2
f 6/1/5 7/2/5 3/3/5
f 4/1/2 7/8/2 6/7/2
f 7/1/6 8/2/6 3/3/6
f 4/1/2 8/9/2 7/8/2
f 8/1/7 9/2/7 3/3/7
f 4/1/2 9/10/2 8/9/2
f 9/1/8 10/2/8 3/3/8
f 4/1/2 10/11/2 9/10/2
f 10/1/9 1/2/9 3/3/9
f 4/1/2 1/4/2 10/11/2

